<?xml version="1.0" encoding="UTF-8" standalone="no"?>
<svg
   xmlns:dc="http://purl.org/dc/elements/1.1/"
   xmlns:cc="http://creativecommons.org/ns#"
   xmlns:rdf="http://www.w3.org/1999/02/22-rdf-syntax-ns#"
   xmlns:svg="http://www.w3.org/2000/svg"
   xmlns="http://www.w3.org/2000/svg"
   xmlns:sodipodi="http://sodipodi.sourceforge.net/DTD/sodipodi-0.dtd"
   xmlns:inkscape="http://www.inkscape.org/namespaces/inkscape"
   version="1.1"
   id="Layer_1"
   x="0px"
   y="0px"
   viewBox="0 0 1540.8 1159.3"
   style="enable-background:new 0 0 1540.8 1159.3;"
   xml:space="preserve"
   sodipodi:docname="background.svg"
   inkscape:version="1.0.1 (3bc2e813f5, 2020-09-07)"><metadata
   id="metadata26"><rdf:RDF><cc:Work
       rdf:about=""><dc:format>image/svg+xml</dc:format><dc:type
         rdf:resource="http://purl.org/dc/dcmitype/StillImage" /></cc:Work></rdf:RDF></metadata><defs
   id="defs24" /><sodipodi:namedview
   pagecolor="#ffffff"
   bordercolor="#666666"
   borderopacity="1"
   objecttolerance="10"
   gridtolerance="10"
   guidetolerance="10"
   inkscape:pageopacity="0"
   inkscape:pageshadow="2"
   inkscape:window-width="1920"
   inkscape:window-height="1001"
   id="namedview22"
   showgrid="false"
   inkscape:zoom="0.35797462"
   inkscape:cx="851.06126"
   inkscape:cy="661.31387"
   inkscape:window-x="-9"
   inkscape:window-y="-9"
   inkscape:window-maximized="1"
   inkscape:current-layer="Module" />
<style
   type="text/css"
   id="style2">
	.st0{fill-rule:evenodd;clip-rule:evenodd;fill:#26468B;}
	.st1{fill:#FFFFFF;}
	.st2{fill-rule:evenodd;clip-rule:evenodd;fill:#FF2D60;}
	.st3{fill:#00C9F2;}
	.st4{fill-rule:evenodd;clip-rule:evenodd;fill:#E4E7EB;}
	.st5{fill-rule:evenodd;clip-rule:evenodd;}
	.st6{fill-rule:evenodd;clip-rule:evenodd;fill:#FFDC09;}
	.st7{fill-rule:evenodd;clip-rule:evenodd;fill:#00C9F2;}
</style>
<g
   id="Kander">
	<g
   id="Module">
		
		<rect
   id="Shape-8"
   x="69.9"
   y="356.2"
   width="200"
   height="200" />
		<rect
   id="Shape-9"
   x="99.9"
   y="386.2"
   class="st1"
   width="140"
   height="140" />
		<polygon
   id="Shape-10"
   class="st2"
   points="169.9,456.2 69.9,556.2 69.9,456.2   " />
		<rect
   id="Shape-11"
   x="1272.1"
   y="98"
   class="st3"
   width="100"
   height="100" />
		<rect
   id="Shape-12"
   x="1287.1"
   y="113"
   class="st1"
   width="70"
   height="70" />
		<polygon
   id="Shape-13"
   class="st0"
   points="1322.1,148 1372.1,98 1372.1,148   " />
		<polygon
   id="Triangle"
   class="st4"
   points="73.8,931.5 28.8,956.5 28.8,906.5   " />
		<polygon
   id="Triangle-2"
   class="st4"
   points="73.8,981 28.8,1006 28.8,956   " />
		<path
   id="Shape-16"
   class="st2"
   d="M180.4,110.4c27.9,0,50.5,22.6,50.5,50.5s-22.6,50.5-50.5,50.5s-50.5-22.6-50.5-50.5l0,0    C129.9,133.1,152.6,110.4,180.4,110.4z" />
		<path
   id="Shape-17"
   class="st5"
   d="M180.4,135.7c13.9,0,25.3,11.3,25.3,25.2s-11.3,25.3-25.3,25.3c-14,0-25.3-11.4-25.3-25.3l0,0    C155.1,147,166.5,135.7,180.4,135.7z" />
		<polygon
   id="Shape-22"
   class="st6"
   points="1349.9,580.7 1249.9,480.7 1349.9,480.7   " />
		<polygon
   id="Shape-23"
   class="st6"
   points="1349.9,480.7 1249.9,580.7 1249.9,480.7   " />
		<polygon
   id="Shape-24"
   class="st7"
   points="1449.9,580.7 1349.9,680.7 1349.9,580.7   " />
		<polygon
   id="Shape-25"
   class="st7"
   points="1449.9,680.7 1349.9,580.7 1449.9,580.7   " />
	</g>
</g>
</svg>
